<svg width="569" height="536" viewBox="0 0 569 536" fill="none" xmlns="http://www.w3.org/2000/svg">
<g filter="url(#filter0_d)">
<rect x="8" y="205" width="506" height="112" rx="56" fill="#FFD15E"/>
<path d="M258.239 39.2891C277.388 20.1667 308.413 20.1884 327.535 39.3375L543.529 255.634C548.603 260.714 548.597 268.945 543.516 274.018L508.136 309.349C488.987 328.471 457.962 328.45 438.84 309.301L248.284 118.478C229.162 99.329 229.183 68.304 248.332 49.1816L258.239 39.2891Z" fill="#FFD15E"/>
<path d="M248.23 469.288C229.612 449.648 230.439 418.634 250.079 400.016L440.268 219.712C459.907 201.093 490.921 201.921 509.54 221.56L550.819 265.103C551.959 266.305 551.909 268.204 550.706 269.344L327.134 481.296C307.495 499.914 276.481 499.087 257.862 479.448L248.23 469.288Z" fill="#FFD15E"/>
</g>
<defs>
<filter id="filter0_d" x="0" y="0.665039" width="568.884" height="534.343" filterUnits="userSpaceOnUse" color-interpolation-filters="sRGB">
<feFlood flood-opacity="0" result="BackgroundImageFix"/>
<feColorMatrix in="SourceAlpha" type="matrix" values="0 0 0 0 0 0 0 0 0 0 0 0 0 0 0 0 0 0 127 0" result="hardAlpha"/>
<feOffset dx="4" dy="8"/>
<feGaussianBlur stdDeviation="6"/>
<feComposite in2="hardAlpha" operator="out"/>
<feColorMatrix type="matrix" values="0 0 0 0 0 0 0 0 0 0 0 0 0 0 0 0 0 0 0.39 0"/>
<feBlend mode="normal" in2="BackgroundImageFix" result="effect1_dropShadow"/>
<feBlend mode="normal" in="SourceGraphic" in2="effect1_dropShadow" result="shape"/>
</filter>
</defs>
</svg>
