<svg width="104" height="104" viewBox="0 0 104 104" fill="none" xmlns="http://www.w3.org/2000/svg">
<circle cx="52" cy="52" r="52" fill="#FFD15E"/>
<path fill-rule="evenodd" clip-rule="evenodd" d="M101.541 67.8474C93.1194 85.2121 75.3209 97.1848 54.726 97.1848C26.0072 97.1848 2.72603 73.9036 2.72603 45.1848C2.72603 39.6586 3.58806 34.3338 5.18499 29.3374C1.86295 36.1872 -2.84692e-05 43.876 -2.91794e-05 52C-3.16901e-05 80.7188 23.2812 104 52 104C75.1926 104 94.8389 88.8165 101.541 67.8474Z" fill="#FABF2B"/>
<path fill-rule="evenodd" clip-rule="evenodd" d="M42.7296 39.9098C43.0342 39.126 43.2976 38.3218 43.5173 37.502L42.9783 37.3576C42.9442 38.1999 42.862 39.0522 42.7296 39.9098ZM25.0439 19.8185L24.0632 15.7214C21.3929 16.8968 18.9584 18.8468 16.9977 21.3807C15.0371 23.9147 13.6173 26.9459 12.8772 30.1782C12.7519 30.7255 12.6468 31.2753 12.562 31.8262C14.9603 25.6504 19.739 21.2054 25.0439 19.8185Z" fill="#FFEDC1"/>
<path fill-rule="evenodd" clip-rule="evenodd" d="M55.8848 20.3112V21.4036L63.3715 21.441C70.6908 21.4777 70.8669 21.4848 71.2348 21.7596C71.4417 21.9141 71.7375 22.2099 71.892 22.417C72.1685 22.787 72.1736 22.9439 72.21 31.9157L72.2468 41.0382H73.339H74.4311L74.3925 31.7354L74.354 22.4326L73.8866 21.5705C73.3816 20.6393 72.8077 20.0892 71.8366 19.6053C71.2206 19.2985 71.1985 19.2975 63.5519 19.2583L55.8848 19.2189V20.3112ZM33.3203 23.9259L32.9857 24.2604V30.4685V36.6764H28.9586H24.9313L24.5968 37.0111L24.2622 37.3455V42.1286V46.9116L24.5968 47.2461L24.9313 47.5807H28.9586H32.9857V63.6026V79.6246L33.3203 79.9591L33.6548 80.2937H51.523H69.3913L69.7257 79.9591C70.0481 79.6369 70.0604 79.5569 70.0604 77.7782V75.932H74.6327H79.2051L79.5396 75.5974L79.8743 75.2629V66.1181V56.9733L79.5396 56.6388L79.2051 56.3042H74.6327H70.0604V40.2823V24.2604L69.7257 23.9259L69.3913 23.5912H51.523H33.6548L33.3203 23.9259ZM67.8795 29.0434V32.3147H51.523H35.1665V29.0434V25.7721H51.523H67.8795V29.0434ZM48.2517 29.0434V30.1338H49.3422H50.4326V29.0434V27.953H49.3422H48.2517V29.0434ZM52.6135 29.0434V30.1338H53.7039H54.7943V29.0434V27.953H53.7039H52.6135V29.0434ZM67.8795 45.3999V56.3042H63.3072H58.7347L58.4002 56.6388L58.0656 56.9733V63.1814V69.3894H46.6161H35.1665V58.4851V47.5807H43.5554H51.9443L52.2788 47.2461L52.6135 46.9116V42.1286V37.3455L52.2788 37.0111L51.9443 36.6764H43.5554H35.1665V35.586V34.4956H51.523H67.8795V45.3999ZM58.9374 36.8615C58.126 37.1275 57.179 37.8241 56.7177 38.4946C55.586 40.1394 55.6434 42.1181 56.8709 43.7784L57.1396 44.1417L56.5101 44.7219C56.1165 45.0846 55.6898 45.688 55.3716 46.3315L54.8625 47.361L54.8171 50.3964L54.7718 53.4316L55.1176 53.7775L55.4634 54.1233H60.2465H65.0295L65.3753 53.7775L65.7211 53.4316L65.6759 50.3964L65.6305 47.361L65.1214 46.3315C64.8031 45.688 64.3765 45.0846 63.9828 44.7219L63.3534 44.1417L63.6221 43.7784C64.3348 42.8145 64.5274 42.2338 64.5313 41.0382C64.5346 40.0782 64.4778 39.7628 64.2001 39.198C63.7738 38.331 62.9461 37.5015 62.0974 37.0905C61.2881 36.6988 59.7701 36.5888 58.9374 36.8615ZM50.4326 42.1286V45.3999H38.4378H26.4431V42.1286V38.8573H38.4378H50.4326V42.1286ZM61.1092 39.0432C62.5095 39.6284 62.851 41.4644 61.7619 42.5536C60.8777 43.4377 59.6153 43.4377 58.7311 42.5536C57.0455 40.8679 58.9054 38.1225 61.1092 39.0432ZM28.6239 42.1286V43.219H29.7144H30.8048V42.1286V41.0382H29.7144H28.6239V42.1286ZM32.9857 42.1286V43.219H34.0761H35.1665V42.1286V41.0382H34.0761H32.9857V42.1286ZM37.3474 42.1286V43.219H38.4378H39.5283V42.1286V41.0382H38.4378H37.3474V42.1286ZM41.7091 42.1286V43.219H42.7996H43.89V42.1286V41.0382H42.7996H41.7091V42.1286ZM46.0709 42.1286V43.219H47.1613H48.2517V42.1286V41.0382H47.1613H46.0709V42.1286ZM72.2412 44.3095V45.3999H73.3317H74.4221V44.3095V43.219H73.3317H72.2412V44.3095ZM61.2529 45.5656C62.0017 45.7869 63.1308 46.916 63.352 47.6647C63.4466 47.9849 63.5178 49.0234 63.5178 50.0841V51.9425H60.2465H56.9752V50.0841C56.9752 47.7718 57.1043 47.3065 57.9928 46.416C58.949 45.4578 59.9789 45.1892 61.2529 45.5656ZM28.6239 59.5755V68.299H29.7144H30.8048V59.5755V50.852H29.7144H28.6239V59.5755ZM37.682 51.1867C37.3501 51.5184 37.3474 51.5423 37.3474 54.1233C37.3474 57.6269 37.1151 57.3946 40.6187 57.3946C44.1223 57.3946 43.89 57.6269 43.89 54.1233C43.89 50.6198 44.1223 50.852 40.6187 50.852C38.0376 50.852 38.0138 50.8548 37.682 51.1867ZM46.4055 51.1867C46.0736 51.5184 46.0709 51.5423 46.0709 54.1233C46.0709 57.6269 45.8386 57.3946 49.3422 57.3946C51.9232 57.3946 51.9471 57.3919 52.2788 57.06C52.6107 56.7283 52.6135 56.7044 52.6135 54.1233C52.6135 50.6198 52.8457 50.852 49.3422 50.852C46.7611 50.852 46.7372 50.8548 46.4055 51.1867ZM41.7091 54.1233V55.2138H40.6187H39.5283V54.1233V53.0329H40.6187H41.7091V54.1233ZM50.4326 54.1233V55.2138H49.3422H48.2517V54.1233V53.0329H49.3422H50.4326V54.1233ZM77.6934 66.1181V73.7511H68.9699H60.2465V66.1181V58.4851H68.9699H77.6934V66.1181ZM37.3474 60.6659V61.7564H38.4378H39.5283V60.6659V59.5755H38.4378H37.3474V60.6659ZM41.7091 60.6659V61.7564H47.1613H52.6135V60.6659V59.5755H47.1613H41.7091V60.6659ZM62.4273 61.7564V62.8468H63.5178H64.6082V61.7564V60.6659H63.5178H62.4273V61.7564ZM66.7891 61.7564V62.8468H71.1508H75.5125V61.7564V60.6659H71.1508H66.7891V61.7564ZM37.3474 65.0277V66.1181H44.9804H52.6135V65.0277V63.9372H44.9804H37.3474V65.0277ZM62.4273 66.1181V67.2085H68.9699H75.5125V66.1181V65.0277H68.9699H62.4273V66.1181ZM62.4273 70.4798V71.5703H68.9699H75.5125V70.4798V69.3894H68.9699H62.4273V70.4798ZM58.0656 73.4165C58.0656 75.1951 58.0779 75.2751 58.4002 75.5974L58.7347 75.932H63.3072H67.8795V77.0224V78.1129H51.523H35.1665V74.8416V71.5703H46.6161H58.0656V73.4165ZM50.4326 74.8416V75.932H51.523H52.6135V74.8416V73.7511H51.523H50.4326V74.8416ZM44.9804 83.565V84.6555H55.8848H66.7891V83.565V82.4746H55.8848H44.9804V83.565Z" fill="white"/>
</svg>
