<svg width="104" height="104" viewBox="0 0 104 104" fill="none" xmlns="http://www.w3.org/2000/svg">
<circle cx="52" cy="52" r="52" fill="#FFD15E"/>
<path fill-rule="evenodd" clip-rule="evenodd" d="M101.541 67.8474C93.1194 85.2121 75.3209 97.1848 54.726 97.1848C26.0072 97.1848 2.72603 73.9036 2.72603 45.1848C2.72603 39.6586 3.58806 34.3338 5.18499 29.3374C1.86295 36.1872 -2.84692e-05 43.876 -2.91794e-05 52C-3.16901e-05 80.7188 23.2812 104 52 104C75.1926 104 94.8389 88.8165 101.541 67.8474Z" fill="#FABF2B"/>
<path fill-rule="evenodd" clip-rule="evenodd" d="M42.7298 39.9098C43.0345 39.126 43.2979 38.3218 43.5175 37.502L42.9785 37.3576C42.9444 38.1999 42.8622 39.0522 42.7298 39.9098ZM25.0441 19.8185L24.0635 15.7214C21.3931 16.8968 18.9586 18.8468 16.998 21.3807C15.0373 23.9147 13.6176 26.9459 12.8775 30.1782C12.7522 30.7255 12.6471 31.2753 12.5622 31.8262C14.9605 25.6504 19.7393 21.2054 25.0441 19.8185Z" fill="#FFEDC1"/>
<path fill-rule="evenodd" clip-rule="evenodd" d="M50.5997 18.1184C46.6014 18.5347 42.2876 20.236 39.0675 22.6666C35.1807 25.6004 32.3964 29.4621 30.8886 34.0108C29.9485 36.8467 29.8009 37.8606 29.7359 41.9308L29.6785 45.5308L26.3462 51.0968C22.7083 57.1735 22.6407 57.3276 23.3593 57.8922C23.6898 58.152 23.8605 58.1636 27.3563 58.1636H31.008L31.0103 58.5236C31.0118 58.7215 30.8536 61.2909 30.6589 64.233C30.2719 70.0813 30.2832 70.3783 30.9438 71.7271C31.6162 73.1001 33.3949 74.44 34.776 74.6142C35.0461 74.6482 36.6201 74.5247 38.2738 74.3398C39.9277 74.1549 41.4461 74.0036 41.6483 74.0036H42.0161V79.0983C42.0161 81.9004 42.0528 84.2885 42.0974 84.405C42.3302 85.011 42.0648 85 56.4969 85C70.929 85 70.6636 85.011 70.8964 84.405C70.9411 84.2885 70.9778 81.6517 70.9778 78.5456V72.8982L75.3761 62.051C77.7953 56.085 79.9403 50.6638 80.1429 50.0037C80.8114 47.8251 81.0032 46.4281 81 43.7635C80.9967 41.2289 80.8756 40.2106 80.3378 38.1999C78.5279 31.4316 72.783 24.7243 65.7799 21.2035C62.4595 19.5342 59.1565 18.5857 55.2052 18.1668C53.2432 17.9589 52.2334 17.9483 50.5997 18.1184ZM56.4314 20.5305C62.1425 21.3949 67.3201 23.9593 71.483 27.9855C74.7313 31.1272 77.1009 34.8951 78.1127 38.5271C78.6427 40.4295 78.774 41.4899 78.7689 43.829C78.7638 46.2127 78.5798 47.5219 77.9822 49.4293C77.8066 49.9896 75.6723 55.3503 73.2393 61.342L68.8155 72.2363L68.7771 77.5054L68.7388 82.7745H56.4956H44.2525L44.2154 77.5486L44.1784 72.3226L43.8607 71.985C43.4463 71.5446 43.2158 71.5472 38.6815 72.0439C35.0901 72.4373 35.0559 72.4384 34.5086 72.1957C33.8081 71.8851 33.0788 71.0801 32.7728 70.2796C32.5393 69.6687 32.5428 69.5384 32.9665 63.2567C33.3728 57.2345 33.3853 56.8367 33.1791 56.5223C33.0586 56.3385 32.8119 56.132 32.6308 56.0631C32.4497 55.9944 30.9194 55.9381 29.2303 55.9381C27.5412 55.9381 26.1592 55.9033 26.1592 55.8607C26.1592 55.8182 27.4418 53.6532 29.0095 51.0498L31.8598 46.3163L31.9401 42.4544C32.0075 39.2144 32.0659 38.3777 32.3026 37.2573C32.9074 34.3958 34.2104 31.3828 35.8281 29.1059C37.0265 27.4188 39.1554 25.3058 40.8366 24.1347C43.7895 22.0777 47.7469 20.6054 51.1895 20.283C52.1689 20.1913 55.1065 20.33 56.4314 20.5305ZM54.7616 24.7835C50.9765 25.1745 47.5054 26.8461 44.6838 29.6367C42.2016 32.0916 40.5646 35.2475 39.9756 38.7132C39.5265 41.3565 39.8842 44.9509 40.8429 47.429C42.6938 52.2133 46.768 55.9895 51.6481 57.4441C52.2968 57.6374 52.9013 57.8177 52.9914 57.8445C53.1111 57.8804 53.1552 58.3356 53.1552 59.5372V61.1808L52.7054 61.8339C51.9941 62.8669 51.959 63.2637 52.0022 69.7675C52.041 75.591 52.0438 75.6456 52.3457 76.3118C52.6994 77.0928 53.1216 77.527 53.9341 77.9457C54.4165 78.1941 54.7777 78.255 56.0355 78.2998C56.9067 78.3308 57.8598 78.2896 58.2707 78.203C59.2927 77.9878 60.1135 77.347 60.5782 76.4016L60.9526 75.64V69.4218C60.9526 62.6841 60.951 62.6676 60.2246 61.7545C59.8425 61.2741 59.8386 61.2529 59.8386 59.5814C59.8386 58.3438 59.8824 57.8808 60.0025 57.8457C64.0917 56.6519 66.3782 55.3508 68.6779 52.9087C71.6672 49.7344 73.2062 45.8298 73.2052 41.4227C73.2044 38.6677 72.661 36.374 71.4229 33.9016C69.8387 30.7376 66.9524 27.9103 63.7178 26.354C61.0218 25.0567 57.7205 24.4778 54.7616 24.7835ZM57.5233 27.2282C58.2823 27.6157 59.7227 29.5 60.1665 30.6861C60.3741 31.2409 55.9414 31.5431 53.8572 31.1162C53.2909 31.0004 52.8088 30.8883 52.786 30.8675C52.7024 30.7912 53.4639 29.4072 54.0231 28.6193C55.1285 27.0618 56.292 26.5993 57.5233 27.2282ZM51.2221 28.9352L50.5965 30.1183L49.7136 29.6736C49.2279 29.4291 48.8306 29.2013 48.8306 29.1675C48.8306 29.0383 51.7104 27.6462 51.8135 27.7256C51.8322 27.7401 51.5662 28.2844 51.2221 28.9352ZM62.077 28.0908C62.4676 28.2548 63.1059 28.555 63.4956 28.7578C64.2836 29.1682 64.2959 29.1364 63.1138 29.7476L62.392 30.1208L61.7814 28.9566C61.4456 28.3165 61.2149 27.7926 61.2688 27.7926C61.3226 27.7926 61.6863 27.9268 62.077 28.0908ZM47.4546 30.9423C47.6708 31.0897 48.308 31.4451 48.8705 31.7319C49.6558 32.1325 49.8783 32.3057 49.8285 32.4777C49.3493 34.1306 48.9869 36.2372 48.8079 38.4109L48.6474 40.3599H45.3237H41.9999L42.0811 39.7381C42.3864 37.3953 43.22 35.1825 44.5142 33.2787C45.1345 32.3662 46.6946 30.6722 46.9135 30.6735C46.9949 30.6739 47.2383 30.7949 47.4546 30.9423ZM67.0844 31.5793C69.1271 33.7421 70.5241 36.7055 70.8998 39.6726L70.9868 40.3599H67.6605H64.3344L64.1775 38.429C64.0464 36.815 63.4181 33.1059 63.1636 32.4434C63.1139 32.3143 63.405 32.0983 64.1192 31.734C64.684 31.446 65.323 31.0897 65.5393 30.9423C65.7555 30.7949 65.999 30.6739 66.0804 30.6735C66.1617 30.673 66.6136 31.0806 67.0844 31.5793ZM53.6794 33.3605C55.6143 33.7065 58.9327 33.5758 60.7096 33.0834C60.9692 33.0115 61.0122 33.0966 61.2692 34.1904C61.7136 36.0808 62.1815 39.7797 61.9641 39.6822C61.9124 39.6589 61.4226 39.4196 60.8759 39.1503C58.085 37.7753 54.8557 37.7866 52.0485 39.1808C51.4758 39.4652 50.9866 39.6772 50.9613 39.6519C50.822 39.5129 51.354 35.6119 51.7033 34.2109C51.7666 33.9568 51.8565 33.5807 51.903 33.3752C51.9729 33.0668 52.038 33.0155 52.2765 33.0814C52.4355 33.1254 53.0667 33.251 53.6794 33.3605ZM58.2641 40.5638C60.222 41.0248 61.8354 42.1365 62.9269 43.7765C63.9018 45.2414 64.2137 46.279 64.2218 48.0835C64.229 49.7029 64.0832 50.3322 63.3724 51.749C62.0983 54.2882 59.3751 55.928 56.4196 55.9359C55.4358 55.9384 53.8379 55.5674 53.005 55.143C48.9636 53.0834 47.5012 48.0203 49.8107 44.0836C50.3448 43.1733 51.781 41.8028 52.723 41.3047C54.3768 40.43 56.4939 40.147 58.2641 40.5638ZM48.0443 42.6528C48.0443 42.6898 47.871 43.0286 47.6594 43.4055C46.366 45.7082 46.0995 49.0457 47.0204 51.4101C47.221 51.9252 47.2369 52.0743 47.1006 52.1608C46.8224 52.337 46.7892 52.3136 45.8584 51.2837C43.8345 49.0444 42.4565 46.1114 42.0947 43.2726L42.007 42.5853H45.0257C46.686 42.5853 48.0443 42.6157 48.0443 42.6528ZM70.896 43.2072C70.5563 45.958 69.3123 48.7298 67.4223 50.9469C66.4761 52.0569 66.1492 52.316 65.8935 52.1582C65.7768 52.0861 65.8011 51.8819 65.9901 51.3445C66.8681 48.849 66.6053 45.6651 65.3348 43.4055C65.1229 43.0286 64.9495 42.6898 64.9495 42.6528C64.9495 42.6157 66.3047 42.5853 67.9612 42.5853H70.9728L70.896 43.2072ZM50.2291 47.3037C49.7698 47.6646 49.6914 48.2224 49.9357 49.3926C50.5603 52.3851 53.1367 54.6623 56.0453 54.7928C57.2434 54.8466 57.8518 54.2172 57.4766 53.3123C57.2684 52.8101 57.0455 52.6956 55.985 52.5456C53.8383 52.2419 52.404 50.7863 52.076 48.5785C51.9689 47.858 51.8615 47.5725 51.6096 47.3393C51.2052 46.9649 50.6776 46.9514 50.2291 47.3037ZM57.6108 59.2763V60.389H56.4969H55.383V59.2763V58.1636H56.4969H57.6108V59.2763ZM57.9543 62.7477C58.7302 63.0179 58.7212 62.9475 58.7627 69.0608C58.8056 75.3516 58.7789 75.6142 58.066 75.9117C57.5253 76.1374 55.6028 76.1611 54.9954 75.9496C54.2192 75.6792 54.2036 75.55 54.2036 69.38C54.2036 65.5808 54.2505 63.6975 54.3522 63.4057C54.4484 63.1304 54.6452 62.917 54.9091 62.8022C55.3944 62.5913 57.4018 62.5553 57.9543 62.7477Z" fill="white"/>
</svg>
